<svg width="571" height="315" viewBox="0 0 571 315" fill="none" xmlns="http://www.w3.org/2000/svg">
<g opacity="0.25">
<path d="M291.585 314.047L307.612 292.326L16 223.5L0.5 314.047" stroke="#A6A8AB" stroke-miterlimit="10" stroke-linejoin="round"/>
<path d="M56 93L307.612 292.327L16 223.5" stroke="#A6A8AB" stroke-miterlimit="10" stroke-linejoin="round"/>
<path d="M55.9999 93L409.876 212.493L307.612 292.327L55.9999 93Z" stroke="#A6A8AB" stroke-miterlimit="10" stroke-linejoin="round"/>
<path d="M55.9999 93L217.749 0.999953L409.876 212.493L55.9999 93Z" stroke="#A6A8AB" stroke-miterlimit="10" stroke-linejoin="round"/>
<path d="M518.055 139.804L409.876 212.493L217.748 0.999941L518.055 139.804Z" stroke="#A6A8AB" stroke-miterlimit="10" stroke-linejoin="round"/>
<path d="M522.157 255.553L518.055 139.804L409.876 212.493L522.157 255.553Z" stroke="#A6A8AB" stroke-miterlimit="10" stroke-linejoin="round"/>
<path d="M444.505 314.047L409.876 212.493L522.157 255.553L473.505 314.047" stroke="#A6A8AB" stroke-miterlimit="10" stroke-linejoin="round"/>
<path d="M375.534 314.047L307.612 292.326L409.876 212.493L444.505 314.047" stroke="#A6A8AB" stroke-miterlimit="10" stroke-linejoin="round"/>
<path d="M319.536 314.047L307.612 292.326L375.534 314.047" stroke="#A6A8AB" stroke-miterlimit="10" stroke-linejoin="round"/>
<path d="M291.585 314.047L307.612 292.326L319.536 314.047" stroke="#A6A8AB" stroke-miterlimit="10" stroke-linejoin="round"/>
<path d="M473.505 314.047L522.157 255.553L526.45 314.047" stroke="#A6A8AB" stroke-miterlimit="10" stroke-linejoin="round"/>
<path d="M526.45 314.047L522.157 255.553L562.605 272.225L547.723 314.047" stroke="#A6A8AB" stroke-miterlimit="10" stroke-linejoin="round"/>
<path d="M547.723 314.046L562.605 272.224L570.237 314.046" stroke="#A6A8AB" stroke-miterlimit="10" stroke-linejoin="round"/>
</g>
</svg>
