<svg width="362" height="502" viewBox="0 0 362 502" fill="none" xmlns="http://www.w3.org/2000/svg">
<g opacity="0.25">
<path d="M255.242 282.586L85.8845 316.697L85.8845 168.926L255.242 282.586Z" stroke="#A6A8AB" stroke-linejoin="round"/>
<path d="M255.242 282.585L85.8847 168.925L272.209 15.0376L255.242 282.585Z" stroke="#A6A8AB" stroke-linejoin="round"/>
<path d="M361 297.815C358.943 297.815 255.242 282.381 255.242 282.381L312.157 120.202L361 297.815Z" stroke="#A6A8AB" stroke-linejoin="round"/>
<path d="M208.455 0.999749L272.209 15.038L85.8847 168.925L208.455 0.999749Z" stroke="#A6A8AB" stroke-linejoin="round"/>
<path d="M38.12 147.416L85.8836 168.925L208.454 0.999746L38.12 147.416Z" stroke="#A6A8AB" stroke-linejoin="round"/>
<path d="M1.00018 341.449L85.8845 168.926L38.121 147.417L1.00018 341.449Z" stroke="#A6A8AB" stroke-linejoin="round"/>
<path d="M85.8845 316.697L85.8845 168.926L1.00018 341.449L85.8845 316.697Z" stroke="#A6A8AB" stroke-linejoin="round"/>
<path d="M131.694 501L0.999776 341.448L85.8841 316.697L131.694 501Z" stroke="#A6A8AB" stroke-linejoin="round"/>
<path d="M131.694 501L361 298.02L255.241 282.586L131.694 501Z" stroke="#A6A8AB" stroke-linejoin="round"/>
<path d="M131.694 501L255.242 282.586L85.8846 316.697L131.694 501Z" stroke="#A6A8AB" stroke-linejoin="round"/>
<path d="M312.208 120.201L272.208 15.0376L255.242 282.585L312.208 120.201Z" stroke="#A6A8AB" stroke-linejoin="round"/>
</g>
</svg>
