<svg width="402" height="290" viewBox="0 0 402 290" fill="none" xmlns="http://www.w3.org/2000/svg">
<g opacity="0.25">
<path d="M175.731 204.394L148.442 68.9077L266.659 68.9077L175.731 204.394Z" stroke="#A6A8AB" stroke-linejoin="round"/>
<path d="M175.73 204.394L266.659 68.9079L389.769 217.967L175.73 204.394Z" stroke="#A6A8AB" stroke-linejoin="round"/>
<path d="M163.548 289C163.548 287.355 175.895 204.393 175.895 204.393L305.638 249.925L163.548 289Z" stroke="#A6A8AB" stroke-linejoin="round"/>
<path d="M400.999 166.964L389.768 217.967L266.658 68.9079L400.999 166.964Z" stroke="#A6A8AB" stroke-linejoin="round"/>
<path d="M283.866 30.6962L266.659 68.907L400.999 166.964L283.866 30.6962Z" stroke="#A6A8AB" stroke-linejoin="round"/>
<path d="M128.641 1.0003L266.659 68.9077L283.866 30.6969L128.641 1.0003Z" stroke="#A6A8AB" stroke-linejoin="round"/>
<path d="M148.442 68.9077L266.659 68.9077L128.641 1.0003L148.442 68.9077Z" stroke="#A6A8AB" stroke-linejoin="round"/>
<path d="M1 105.555L128.641 1.00001L148.443 68.9074L1 105.555Z" stroke="#A6A8AB" stroke-linejoin="round"/>
<path d="M0.999999 105.555L163.384 288.999L175.731 204.393L0.999999 105.555Z" stroke="#A6A8AB" stroke-linejoin="round"/>
<path d="M0.999999 105.556L175.731 204.394L148.443 68.9078L0.999999 105.556Z" stroke="#A6A8AB" stroke-linejoin="round"/>
<path d="M305.638 249.966L389.769 217.967L175.73 204.393L305.638 249.966Z" stroke="#A6A8AB" stroke-linejoin="round"/>
</g>
</svg>
