<svg width="363" height="507" viewBox="0 0 363 507" fill="none" xmlns="http://www.w3.org/2000/svg">
<g opacity="0.25">
<path d="M255.883 221.532L85.9511 187.091L85.9511 336.295L255.883 221.532Z" stroke="#A6A8AB" stroke-linejoin="round"/>
<path d="M255.883 221.532L85.951 336.295L272.907 491.674L255.883 221.532Z" stroke="#A6A8AB" stroke-linejoin="round"/>
<path d="M362 206.155C359.936 206.155 255.883 221.739 255.883 221.739L312.991 385.49L362 206.155Z" stroke="#A6A8AB" stroke-linejoin="round"/>
<path d="M208.938 505.848L272.907 491.673L85.951 336.294L208.938 505.848Z" stroke="#A6A8AB" stroke-linejoin="round"/>
<path d="M38.0245 358.011L85.9501 336.294L208.937 505.848L38.0245 358.011Z" stroke="#A6A8AB" stroke-linejoin="round"/>
<path d="M0.778556 162.099L85.9509 336.294L38.0253 358.012L0.778556 162.099Z" stroke="#A6A8AB" stroke-linejoin="round"/>
<path d="M85.9509 187.09L85.9509 336.294L0.778556 162.099L85.9509 187.09Z" stroke="#A6A8AB" stroke-linejoin="round"/>
<path d="M131.916 1L0.778394 162.099L85.9508 187.09L131.916 1Z" stroke="#A6A8AB" stroke-linejoin="round"/>
<path d="M131.916 1L362 205.948L255.883 221.532L131.916 1Z" stroke="#A6A8AB" stroke-linejoin="round"/>
<path d="M131.916 1L255.883 221.532L85.9511 187.09L131.916 1Z" stroke="#A6A8AB" stroke-linejoin="round"/>
<path d="M313.043 385.49L272.907 491.674L255.883 221.532L313.043 385.49Z" stroke="#A6A8AB" stroke-linejoin="round"/>
</g>
</svg>
