<svg width="253" height="352" viewBox="0 0 253 352" fill="none" xmlns="http://www.w3.org/2000/svg">
<g opacity="0.25">
<path d="M178.263 153.89L60.1834 130.013L60.1834 233.453L178.263 153.89Z" stroke="#A6A8AB" stroke-linejoin="round"/>
<path d="M178.263 153.89L60.1835 233.453L190.093 341.174L178.263 153.89Z" stroke="#A6A8AB" stroke-linejoin="round"/>
<path d="M252 143.229C250.566 143.229 178.263 154.033 178.263 154.033L217.945 267.558L252 143.229Z" stroke="#A6A8AB" stroke-linejoin="round"/>
<path d="M145.642 351L190.093 341.173L60.1835 233.452L145.642 351Z" stroke="#A6A8AB" stroke-linejoin="round"/>
<path d="M26.881 248.508L60.1828 233.452L145.642 351L26.881 248.508Z" stroke="#A6A8AB" stroke-linejoin="round"/>
<path d="M1.00014 112.686L60.1834 233.452L26.8816 248.508L1.00014 112.686Z" stroke="#A6A8AB" stroke-linejoin="round"/>
<path d="M60.1834 130.012L60.1834 233.452L1.00014 112.686L60.1834 130.012Z" stroke="#A6A8AB" stroke-linejoin="round"/>
<path d="M92.1229 1L1.00009 112.686L60.1833 130.012L92.1229 1Z" stroke="#A6A8AB" stroke-linejoin="round"/>
<path d="M92.1226 1L252 143.086L178.263 153.89L92.1226 1Z" stroke="#A6A8AB" stroke-linejoin="round"/>
<path d="M92.123 1L178.263 153.89L60.1834 130.012L92.123 1Z" stroke="#A6A8AB" stroke-linejoin="round"/>
<path d="M217.981 267.559L190.093 341.174L178.263 153.89L217.981 267.559Z" stroke="#A6A8AB" stroke-linejoin="round"/>
</g>
</svg>
