<svg width="264" height="398" viewBox="0 0 264 398" fill="none" xmlns="http://www.w3.org/2000/svg">
<g opacity="0.25">
<path d="M121.21 397L192.261 197.678L126.975 121.093L121.21 397ZM121.21 397L187.82 339.347L192.261 197.678L121.21 397ZM121.21 397L38.6289 307.127L0.999977 162.458L121.21 397Z" stroke="#A6A8AB" stroke-miterlimit="10" stroke-linejoin="round"/>
<path d="M1.00012 162.386L126.897 121.093L121.21 397" stroke="#A6A8AB" stroke-miterlimit="10" stroke-linejoin="round"/>
<path d="M67.5324 40.0783L126.975 121.093L1.07797 162.386L67.5324 40.0783Z" stroke="#A6A8AB" stroke-miterlimit="10" stroke-linejoin="round"/>
<path d="M162.189 37.0067L67.5324 40.0786L126.975 121.093L162.189 37.0067Z" stroke="#A6A8AB" stroke-miterlimit="10" stroke-linejoin="round"/>
<path d="M192.261 197.678L126.975 121.093L259.884 114.02L192.261 197.678Z" stroke="#A6A8AB" stroke-miterlimit="10" stroke-linejoin="round"/>
<path d="M239.005 183.247L192.261 197.678L259.884 114.02L239.005 183.247Z" stroke="#A6A8AB" stroke-miterlimit="10" stroke-linejoin="round"/>
<path d="M263 227.969L192.261 197.678L239.005 183.247L263 227.969Z" stroke="#A6A8AB" stroke-miterlimit="10" stroke-linejoin="round"/>
<path d="M239.005 42.8649L162.189 37.0067L259.884 114.021L126.897 121.093L162.111 37.0067L259.884 114.021L239.005 42.8649ZM239.005 42.8649L162.189 37.0067L175.823 6.7155L239.005 42.8649Z" stroke="#A6A8AB" stroke-miterlimit="10" stroke-linejoin="round"/>
<path d="M239.005 42.8647L175.823 6.71532L210.024 1.00001L239.005 42.8647Z" stroke="#A6A8AB" stroke-miterlimit="10" stroke-linejoin="round"/>
<path d="M187.82 339.347L192.261 197.678L263 227.97L187.82 339.347Z" stroke="#A6A8AB" stroke-miterlimit="10" stroke-linejoin="round"/>
</g>
</svg>
